<mxfile host="app.diagrams.net" modified="2023-07-24T10:27:49.945Z" agent="Mozilla/5.0 (Windows NT 10.0; Win64; x64) AppleWebKit/537.36 (KHTML, like Gecko) Chrome/115.0.0.0 Safari/537.36" etag="R8Ji1ue8ALGkqs2Y9s-R" version="21.6.5" type="google">
  <diagram name="Page-1" id="cTJouMvlElkX_facJMjP">
    <mxGraphModel grid="1" page="1" gridSize="14" guides="1" tooltips="1" connect="1" arrows="1" fold="1" pageScale="1" pageWidth="850" pageHeight="1100" math="0" shadow="0">
      <root>
        <mxCell id="0" />
        <mxCell id="1" parent="0" />
        <mxCell id="f_US4Uf2xykhbNlDlb5E-2" value="Person" style="swimlane;fontStyle=1;align=center;verticalAlign=top;childLayout=stackLayout;horizontal=1;startSize=26;horizontalStack=0;resizeParent=1;resizeParentMax=0;resizeLast=0;collapsible=1;marginBottom=0;whiteSpace=wrap;html=1;fillColor=#fff2cc;strokeColor=#d6b656;" vertex="1" parent="1">
          <mxGeometry x="330" y="30" width="160" height="142" as="geometry" />
        </mxCell>
        <mxCell id="f_US4Uf2xykhbNlDlb5E-3" value="- name: string&lt;br&gt;- age: int" style="text;align=left;verticalAlign=top;spacingLeft=4;spacingRight=4;overflow=hidden;rotatable=0;points=[[0,0.5],[1,0.5]];portConstraint=eastwest;whiteSpace=wrap;html=1;fillColor=#fff2cc;strokeColor=#d6b656;" vertex="1" parent="f_US4Uf2xykhbNlDlb5E-2">
          <mxGeometry y="26" width="160" height="44" as="geometry" />
        </mxCell>
        <mxCell id="f_US4Uf2xykhbNlDlb5E-5" value="+ getName(): string&lt;br&gt;+setName(string): void&lt;br&gt;+getAge(): int&lt;br&gt;+setAge(int): void&amp;nbsp;" style="text;align=left;verticalAlign=top;spacingLeft=4;spacingRight=4;overflow=hidden;rotatable=0;points=[[0,0.5],[1,0.5]];portConstraint=eastwest;whiteSpace=wrap;html=1;fillColor=#fff2cc;strokeColor=#d6b656;" vertex="1" parent="f_US4Uf2xykhbNlDlb5E-2">
          <mxGeometry y="70" width="160" height="72" as="geometry" />
        </mxCell>
        <mxCell id="f_US4Uf2xykhbNlDlb5E-6" value="Student" style="swimlane;fontStyle=1;align=center;verticalAlign=top;childLayout=stackLayout;horizontal=1;startSize=26;horizontalStack=0;resizeParent=1;resizeParentMax=0;resizeLast=0;collapsible=1;marginBottom=0;whiteSpace=wrap;html=1;fillColor=#fff2cc;strokeColor=#d6b656;" vertex="1" parent="1">
          <mxGeometry x="180" y="250" width="160" height="92" as="geometry" />
        </mxCell>
        <mxCell id="f_US4Uf2xykhbNlDlb5E-15" value="Extends" style="endArrow=block;endSize=16;endFill=0;html=1;rounded=0;entryX=0.293;entryY=1.043;entryDx=0;entryDy=0;entryPerimeter=0;fillColor=#fff2cc;strokeColor=#d6b656;" edge="1" parent="f_US4Uf2xykhbNlDlb5E-6" target="f_US4Uf2xykhbNlDlb5E-5">
          <mxGeometry width="160" relative="1" as="geometry">
            <mxPoint x="60" as="sourcePoint" />
            <mxPoint x="160" y="-60" as="targetPoint" />
          </mxGeometry>
        </mxCell>
        <mxCell id="f_US4Uf2xykhbNlDlb5E-7" value="- rollNo: int" style="text;align=left;verticalAlign=top;spacingLeft=4;spacingRight=4;overflow=hidden;rotatable=0;points=[[0,0.5],[1,0.5]];portConstraint=eastwest;whiteSpace=wrap;html=1;fillColor=#fff2cc;strokeColor=#d6b656;" vertex="1" parent="f_US4Uf2xykhbNlDlb5E-6">
          <mxGeometry y="26" width="160" height="26" as="geometry" />
        </mxCell>
        <mxCell id="f_US4Uf2xykhbNlDlb5E-9" value="+ getRollNo(): int&lt;br&gt;+setRollNo(int): void" style="text;align=left;verticalAlign=top;spacingLeft=4;spacingRight=4;overflow=hidden;rotatable=0;points=[[0,0.5],[1,0.5]];portConstraint=eastwest;whiteSpace=wrap;html=1;fillColor=#fff2cc;strokeColor=#d6b656;" vertex="1" parent="f_US4Uf2xykhbNlDlb5E-6">
          <mxGeometry y="52" width="160" height="40" as="geometry" />
        </mxCell>
        <mxCell id="f_US4Uf2xykhbNlDlb5E-10" value="Teacher" style="swimlane;fontStyle=1;align=center;verticalAlign=top;childLayout=stackLayout;horizontal=1;startSize=26;horizontalStack=0;resizeParent=1;resizeParentMax=0;resizeLast=0;collapsible=1;marginBottom=0;whiteSpace=wrap;html=1;fillColor=#fff2cc;strokeColor=#d6b656;" vertex="1" parent="1">
          <mxGeometry x="510" y="250" width="160" height="92" as="geometry" />
        </mxCell>
        <mxCell id="f_US4Uf2xykhbNlDlb5E-11" value="- empId: int" style="text;align=left;verticalAlign=top;spacingLeft=4;spacingRight=4;overflow=hidden;rotatable=0;points=[[0,0.5],[1,0.5]];portConstraint=eastwest;whiteSpace=wrap;html=1;fillColor=#fff2cc;strokeColor=#d6b656;" vertex="1" parent="f_US4Uf2xykhbNlDlb5E-10">
          <mxGeometry y="26" width="160" height="26" as="geometry" />
        </mxCell>
        <mxCell id="f_US4Uf2xykhbNlDlb5E-13" value="+ getEmpId(): int&lt;br&gt;+setEmpId(int): void" style="text;align=left;verticalAlign=top;spacingLeft=4;spacingRight=4;overflow=hidden;rotatable=0;points=[[0,0.5],[1,0.5]];portConstraint=eastwest;whiteSpace=wrap;html=1;fillColor=#fff2cc;strokeColor=#d6b656;" vertex="1" parent="f_US4Uf2xykhbNlDlb5E-10">
          <mxGeometry y="52" width="160" height="40" as="geometry" />
        </mxCell>
        <mxCell id="f_US4Uf2xykhbNlDlb5E-16" value="Extends" style="endArrow=block;endSize=16;endFill=0;html=1;rounded=0;exitX=0.5;exitY=0;exitDx=0;exitDy=0;entryX=0.689;entryY=1.031;entryDx=0;entryDy=0;entryPerimeter=0;fillColor=#fff2cc;strokeColor=#d6b656;" edge="1" parent="1" source="f_US4Uf2xykhbNlDlb5E-10" target="f_US4Uf2xykhbNlDlb5E-5">
          <mxGeometry width="160" relative="1" as="geometry">
            <mxPoint x="430" y="220" as="sourcePoint" />
            <mxPoint x="490" y="180" as="targetPoint" />
          </mxGeometry>
        </mxCell>
        <mxCell id="f_US4Uf2xykhbNlDlb5E-17" value="Address" style="swimlane;fontStyle=1;align=center;verticalAlign=top;childLayout=stackLayout;horizontal=1;startSize=26;horizontalStack=0;resizeParent=1;resizeParentMax=0;resizeLast=0;collapsible=1;marginBottom=0;whiteSpace=wrap;html=1;fillColor=#fff2cc;strokeColor=#d6b656;" vertex="1" parent="1">
          <mxGeometry x="600" y="30" width="160" height="132" as="geometry" />
        </mxCell>
        <mxCell id="f_US4Uf2xykhbNlDlb5E-18" value="- city: string&lt;br&gt;- state: string" style="text;align=left;verticalAlign=top;spacingLeft=4;spacingRight=4;overflow=hidden;rotatable=0;points=[[0,0.5],[1,0.5]];portConstraint=eastwest;whiteSpace=wrap;html=1;fillColor=#fff2cc;strokeColor=#d6b656;" vertex="1" parent="f_US4Uf2xykhbNlDlb5E-17">
          <mxGeometry y="26" width="160" height="34" as="geometry" />
        </mxCell>
        <mxCell id="f_US4Uf2xykhbNlDlb5E-20" value="+ getCity(): string&lt;br&gt;+ setCity(string): void&lt;br&gt;+getState(): string&lt;br&gt;+setState(string): void" style="text;align=left;verticalAlign=top;spacingLeft=4;spacingRight=4;overflow=hidden;rotatable=0;points=[[0,0.5],[1,0.5]];portConstraint=eastwest;whiteSpace=wrap;html=1;fillColor=#fff2cc;strokeColor=#d6b656;" vertex="1" parent="f_US4Uf2xykhbNlDlb5E-17">
          <mxGeometry y="60" width="160" height="72" as="geometry" />
        </mxCell>
        <mxCell id="f_US4Uf2xykhbNlDlb5E-21" value="" style="endArrow=diamondThin;endFill=0;endSize=24;html=1;rounded=0;exitX=1.005;exitY=0.609;exitDx=0;exitDy=0;exitPerimeter=0;entryX=1.005;entryY=0.609;entryDx=0;entryDy=0;entryPerimeter=0;fillColor=#fff2cc;strokeColor=#d6b656;" edge="1" parent="1">
          <mxGeometry width="160" relative="1" as="geometry">
            <mxPoint x="600" y="104.57" as="sourcePoint" />
            <mxPoint x="490.79999999999995" y="104.87199999999996" as="targetPoint" />
          </mxGeometry>
        </mxCell>
        <mxCell id="f_US4Uf2xykhbNlDlb5E-22" value="" style="endArrow=block;dashed=1;endFill=0;endSize=12;html=1;rounded=0;entryX=0;entryY=0.5;entryDx=0;entryDy=0;exitX=1.005;exitY=0.007;exitDx=0;exitDy=0;exitPerimeter=0;fillColor=#fff2cc;strokeColor=#d6b656;" edge="1" parent="1" source="f_US4Uf2xykhbNlDlb5E-11" target="f_US4Uf2xykhbNlDlb5E-23">
          <mxGeometry width="160" relative="1" as="geometry">
            <mxPoint x="670" y="300" as="sourcePoint" />
            <mxPoint x="680" y="220" as="targetPoint" />
          </mxGeometry>
        </mxCell>
        <mxCell id="f_US4Uf2xykhbNlDlb5E-23" value="«interface»&lt;br&gt;&lt;b&gt;Salary&lt;/b&gt;" style="html=1;whiteSpace=wrap;fillColor=#fff2cc;strokeColor=#d6b656;" vertex="1" parent="1">
          <mxGeometry x="728" y="252" width="110" height="50" as="geometry" />
        </mxCell>
        <mxCell id="f_US4Uf2xykhbNlDlb5E-27" value="1" style="text;html=1;align=center;verticalAlign=middle;resizable=0;points=[];autosize=1;" vertex="1" parent="1">
          <mxGeometry x="476" y="70" width="42" height="28" as="geometry" />
        </mxCell>
        <mxCell id="f_US4Uf2xykhbNlDlb5E-28" value="n" style="text;html=1;align=center;verticalAlign=middle;resizable=0;points=[];autosize=1;" vertex="1" parent="1">
          <mxGeometry x="569" y="70" width="42" height="28" as="geometry" />
        </mxCell>
      </root>
    </mxGraphModel>
  </diagram>
</mxfile>
